{
  "accessors": [
    {
      "bufferView": 2,
      "componentType": 5126,
      "count": 3095,
      "max": [
        0.059364061802625656,
        0.14919281005859375,
        0.9078333973884583
      ],
      "min": [
        -0.060994815081357956,
        -0.05835455656051636,
        0.6660515666007996
      ],
      "type": "VEC3"
    },
    {
      "bufferView": 2,
      "byteOffset": 37140,
      "componentType": 5126,
      "count": 3095,
      "max": [
        0.9997205138206482,
        0.9997055530548096,
        0.9986698031425476
      ],
      "min": [
        -0.9997163414955139,
        -0.9982811212539673,
        -0.9951885938644409
      ],
      "type": "VEC3"
    },
    {
      "bufferView": 1,
      "componentType": 5126,
      "count": 3095,
      "max": [
        0.8440070152282715,
        0.9998016357421875
      ],
      "min": [
        0.010940718464553356,
        0.0036316514015197754
      ],
      "type": "VEC2"
    },
    {
      "bufferView": 1,
      "byteOffset": 24760,
      "componentType": 5126,
      "count": 3095,
      "max": [
        0.8440070152282715,
        0.9998016357421875
      ],
      "min": [
        0.010940718464553356,
        0.0036316514015197754
      ],
      "type": "VEC2"
    },
    {
      "bufferView": 0,
      "componentType": 5125,
      "count": 10278,
      "type": "SCALAR"
    },
    {
      "bufferView": 2,
      "byteOffset": 74280,
      "componentType": 5126,
      "count": 2201,
      "max": [
        0.12570929527282715,
        0.10732655972242355,
        0.7767232060432434
      ],
      "min": [
        -0.13943520188331604,
        -0.08527332544326782,
        0.3350065052509308
      ],
      "type": "VEC3"
    },
    {
      "bufferView": 2,
      "byteOffset": 100692,
      "componentType": 5126,
      "count": 2201,
      "max": [
        0.9997265934944153,
        0.9995165467262268,
        0.9983229041099548
      ],
      "min": [
        -0.9999845623970032,
        -0.9993930459022522,
        -0.998997688293457
      ],
      "type": "VEC3"
    },
    {
      "bufferView": 1,
      "byteOffset": 49520,
      "componentType": 5126,
      "count": 2201,
      "max": [
        0.9970855116844177,
        0.9965361952781677
      ],
      "min": [
        0.0024872205685824156,
        0.0029144883155822754
      ],
      "type": "VEC2"
    },
    {
      "bufferView": 1,
      "byteOffset": 67128,
      "componentType": 5126,
      "count": 2201,
      "max": [
        0.9970855116844177,
        0.9965361952781677
      ],
      "min": [
        0.0024872205685824156,
        0.0029144883155822754
      ],
      "type": "VEC2"
    },
    {
      "bufferView": 0,
      "byteOffset": 41112,
      "componentType": 5125,
      "count": 9753,
      "type": "SCALAR"
    },
    {
      "bufferView": 2,
      "byteOffset": 127104,
      "componentType": 5126,
      "count": 987,
      "max": [
        0.09129799902439117,
        0.05938545614480972,
        0.5580987334251404
      ],
      "min": [
        -0.08376848697662354,
        -0.0676325336098671,
        0.4271985590457916
      ],
      "type": "VEC3"
    },
    {
      "bufferView": 2,
      "byteOffset": 138948,
      "componentType": 5126,
      "count": 987,
      "max": [
        0.9973125457763672,
        0.9972488284111023,
        0.9999744296073914
      ],
      "min": [
        -0.9973183870315552,
        -0.9988136291503906,
        -0.9908688068389893
      ],
      "type": "VEC3"
    },
    {
      "bufferView": 1,
      "byteOffset": 84736,
      "componentType": 5126,
      "count": 987,
      "max": [
        0.9971923232078552,
        0.9968413710594177
      ],
      "min": [
        0.002197299152612686,
        0.007675290107727051
      ],
      "type": "VEC2"
    },
    {
      "bufferView": 1,
      "byteOffset": 92632,
      "componentType": 5126,
      "count": 987,
      "max": [
        0.9971923232078552,
        0.9968413710594177
      ],
      "min": [
        0.002197299152612686,
        0.007675290107727051
      ],
      "type": "VEC2"
    },
    {
      "bufferView": 0,
      "byteOffset": 80124,
      "componentType": 5125,
      "count": 3237,
      "type": "SCALAR"
    },
    {
      "bufferView": 2,
      "byteOffset": 150792,
      "componentType": 5126,
      "count": 1080,
      "max": [
        0.06832102686166763,
        0.0596529059112072,
        0.1611240804195404
      ],
      "min": [
        -0.08936071395874023,
        -0.10170584917068481,
        -0.0004712222144007683
      ],
      "type": "VEC3"
    },
    {
      "bufferView": 2,
      "byteOffset": 163752,
      "componentType": 5126,
      "count": 1080,
      "max": [
        0.9998575448989868,
        0.9999650716781616,
        0.9995948672294617
      ],
      "min": [
        -0.9998283386230469,
        -0.9999982118606567,
        -0.9999648332595825
      ],
      "type": "VEC3"
    },
    {
      "bufferView": 3,
      "componentType": 5126,
      "count": 1080,
      "max": [
        0.9997879862785339,
        0.9997231364250183,
        0.9883148670196533,
        1.0
      ],
      "min": [
        -0.9998115301132202,
        -0.9992644786834717,
        -0.9985413551330566,
        -1.0
      ],
      "type": "VEC4"
    },
    {
      "bufferView": 1,
      "byteOffset": 100528,
      "componentType": 5126,
      "count": 1080,
      "max": [
        0.9967803359031677,
        0.9968108534812927
      ],
      "min": [
        0.0061036087572574615,
        0.011001765727996826
      ],
      "type": "VEC2"
    },
    {
      "bufferView": 1,
      "byteOffset": 109168,
      "componentType": 5126,
      "count": 1080,
      "max": [
        0.9967803359031677,
        0.9968108534812927
      ],
      "min": [
        0.0061036087572574615,
        0.011001765727996826
      ],
      "type": "VEC2"
    },
    {
      "bufferView": 0,
      "byteOffset": 93072,
      "componentType": 5125,
      "count": 3906,
      "type": "SCALAR"
    },
    {
      "bufferView": 2,
      "byteOffset": 176712,
      "componentType": 5126,
      "count": 268,
      "max": [
        0.0362514927983284,
        0.043263692408800125,
        0.883777379989624
      ],
      "min": [
        -0.03280456364154816,
        -0.06148236244916916,
        0.7585992217063904
      ],
      "type": "VEC3"
    },
    {
      "bufferView": 2,
      "byteOffset": 179928,
      "componentType": 5126,
      "count": 268,
      "max": [
        0.9995076656341553,
        0.9965614676475525,
        0.999920666217804
      ],
      "min": [
        -0.9932249784469604,
        -0.9976474642753601,
        -0.9933280944824219
      ],
      "type": "VEC3"
    },
    {
      "bufferView": 1,
      "byteOffset": 117808,
      "componentType": 5126,
      "count": 268,
      "max": [
        0.999298095703125,
        0.9749447107315063
      ],
      "min": [
        0.021301595494151115,
        0.0163271427154541
      ],
      "type": "VEC2"
    },
    {
      "bufferView": 1,
      "byteOffset": 119952,
      "componentType": 5126,
      "count": 268,
      "max": [
        0.999298095703125,
        0.9749447107315063
      ],
      "min": [
        0.021301595494151115,
        0.0163271427154541
      ],
      "type": "VEC2"
    },
    {
      "bufferView": 0,
      "byteOffset": 108696,
      "componentType": 5125,
      "count": 1272,
      "type": "SCALAR"
    },
    {
      "bufferView": 2,
      "byteOffset": 183144,
      "componentType": 5126,
      "count": 2219,
      "max": [
        0.11846676468849182,
        0.048667602241039276,
        0.8659102320671082
      ],
      "min": [
        -0.14134454727172852,
        -0.07387365400791168,
        0.004123297519981861
      ],
      "type": "VEC3"
    },
    {
      "bufferView": 2,
      "byteOffset": 209772,
      "componentType": 5126,
      "count": 2219,
      "max": [
        0.9998095035552979,
        0.9996854066848755,
        0.99310702085495
      ],
      "min": [
        -0.9996073842048645,
        -0.9999346733093262,
        -0.9983968138694763
      ],
      "type": "VEC3"
    },
    {
      "bufferView": 1,
      "byteOffset": 122096,
      "componentType": 5126,
      "count": 2219,
      "max": [
        0.9970855116844177,
        0.9935530424118042
      ],
      "min": [
        0.008087282069027424,
        0.0038529038429260254
      ],
      "type": "VEC2"
    },
    {
      "bufferView": 1,
      "byteOffset": 139848,
      "componentType": 5126,
      "count": 2219,
      "max": [
        0.9970855116844177,
        0.9935530424118042
      ],
      "min": [
        0.008087282069027424,
        0.0038529038429260254
      ],
      "type": "VEC2"
    },
    {
      "bufferView": 0,
      "byteOffset": 113784,
      "componentType": 5125,
      "count": 10683,
      "type": "SCALAR"
    }
  ],
  "asset": {
    "extras": {
      "author": "BrOkiE FF (https://sketchfab.com/mafujarrahaman123)",
      "license": "CC-BY-4.0 (http://creativecommons.org/licenses/by/4.0/)",
      "source": "https://sketchfab.com/3d-models/luna-full-bundle-free-fire-19f3383035dd4b75b58d2006d085ec16",
      "title": "Luna Full Bundle_Free Fire"
    },
    "generator": "Sketchfab-14.37.0",
    "version": "2.0"
  },
  "bufferViews": [
    {
      "buffer": 0,
      "byteLength": 156516,
      "name": "floatBufferViews",
      "target": 34963
    },
    {
      "buffer": 0,
      "byteLength": 157600,
      "byteOffset": 156516,
      "byteStride": 8,
      "name": "floatBufferViews",
      "target": 34962
    },
    {
      "buffer": 0,
      "byteLength": 236400,
      "byteOffset": 314116,
      "byteStride": 12,
      "name": "floatBufferViews",
      "target": 34962
    },
    {
      "buffer": 0,
      "byteLength": 17280,
      "byteOffset": 550516,
      "byteStride": 16,
      "name": "floatBufferViews",
      "target": 34962
    }
  ],
  "buffers": [
    {
      "byteLength": 567796,
      "uri": "scene.bin"
    }
  ],
  "images": [
    {
      "uri": "textures/mat0.071_baseColor.png"
    },
    {
      "uri": "textures/mat0.080_baseColor.png"
    },
    {
      "uri": "textures/mat0.081_baseColor.png"
    },
    {
      "uri": "textures/mat0.082_baseColor.png"
    },
    {
      "uri": "textures/mat0.082_normal.png"
    },
    {
      "uri": "textures/mat0.084_baseColor.png"
    },
    {
      "uri": "textures/mat0.088_baseColor.png"
    }
  ],
  "materials": [
    {
      "doubleSided": true,
      "name": "mat0.071",
      "pbrMetallicRoughness": {
        "baseColorTexture": {
          "index": 0
        },
        "metallicFactor": 0.0,
        "roughnessFactor": 0.8423934207722621
      }
    },
    {
      "doubleSided": true,
      "name": "mat0.080",
      "pbrMetallicRoughness": {
        "baseColorTexture": {
          "index": 1
        },
        "metallicFactor": 0.3520010727651741,
        "roughnessFactor": 0.3310455803293877
      }
    },
    {
      "doubleSided": true,
      "name": "mat0.081",
      "pbrMetallicRoughness": {
        "baseColorTexture": {
          "index": 2
        },
        "metallicFactor": 0.3459058160939157,
        "roughnessFactor": 0.4163791737270057
      }
    },
    {
      "doubleSided": true,
      "name": "mat0.082",
      "normalTexture": {
        "index": 4,
        "scale": 0.8640026331508819
      },
      "pbrMetallicRoughness": {
        "baseColorTexture": {
          "index": 3
        },
        "metallicFactor": 0.40685838280649994,
        "roughnessFactor": 0.5382843071521742
      }
    },
    {
      "doubleSided": true,
      "name": "mat0.084",
      "pbrMetallicRoughness": {
        "baseColorTexture": {
          "index": 5
        },
        "metallicFactor": 0.3946678694639831,
        "roughnessFactor": 0.434664943740781
      }
    },
    {
      "doubleSided": true,
      "name": "mat0.088",
      "pbrMetallicRoughness": {
        "baseColorTexture": {
          "index": 6
        },
        "metallicFactor": 0.5104777462178932,
        "roughnessFactor": 0.5260937938096574
      }
    }
  ],
  "meshes": [
    {
      "name": "Mesh_0031.rip_mat0.071_0",
      "primitives": [
        {
          "attributes": {
            "NORMAL": 1,
            "POSITION": 0,
            "TEXCOORD_0": 2,
            "TEXCOORD_1": 3
          },
          "indices": 4,
          "material": 0,
          "mode": 4
        }
      ]
    },
    {
      "name": "Mesh_0022.rip_mat0.080_0",
      "primitives": [
        {
          "attributes": {
            "NORMAL": 6,
            "POSITION": 5,
            "TEXCOORD_0": 7,
            "TEXCOORD_1": 8
          },
          "indices": 9,
          "material": 1,
          "mode": 4
        }
      ]
    },
    {
      "name": "Mesh_0021.rip_mat0.081_0",
      "primitives": [
        {
          "attributes": {
            "NORMAL": 11,
            "POSITION": 10,
            "TEXCOORD_0": 12,
            "TEXCOORD_1": 13
          },
          "indices": 14,
          "material": 2,
          "mode": 4
        }
      ]
    },
    {
      "name": "Mesh_0020.rip_mat0.082_0",
      "primitives": [
        {
          "attributes": {
            "NORMAL": 16,
            "POSITION": 15,
            "TANGENT": 17,
            "TEXCOORD_0": 18,
            "TEXCOORD_1": 19
          },
          "indices": 20,
          "material": 3,
          "mode": 4
        }
      ]
    },
    {
      "name": "Mesh_0018.rip_mat0.084_0",
      "primitives": [
        {
          "attributes": {
            "NORMAL": 22,
            "POSITION": 21,
            "TEXCOORD_0": 23,
            "TEXCOORD_1": 24
          },
          "indices": 25,
          "material": 4,
          "mode": 4
        }
      ]
    },
    {
      "name": "Mesh_0014.rip_mat0.088_0",
      "primitives": [
        {
          "attributes": {
            "NORMAL": 27,
            "POSITION": 26,
            "TEXCOORD_0": 28,
            "TEXCOORD_1": 29
          },
          "indices": 30,
          "material": 5,
          "mode": 4
        }
      ]
    }
  ],
  "nodes": [
    {
      "children": [
        1
      ],
      "matrix": [
        1.0,
        0.0,
        0.0,
        0.0,
        0.0,
        2.220446049250313e-16,
        -1.0,
        0.0,
        0.0,
        1.0,
        2.220446049250313e-16,
        0.0,
        0.0,
        0.0,
        0.0,
        1.0
      ],
      "name": "Sketchfab_model"
    },
    {
      "children": [
        2
      ],
      "matrix": [
        0.009999999776482582,
        0.0,
        0.0,
        0.0,
        0.0,
        0.0,
        0.009999999776482582,
        0.0,
        0.0,
        -0.009999999776482582,
        0.0,
        0.0,
        0.0,
        0.0,
        0.0,
        1.0
      ],
      "name": "0e1c575ccd6a4110a313d0f99161244d.fbx"
    },
    {
      "children": [
        3,
        5,
        7,
        9,
        11,
        13
      ],
      "name": "RootNode"
    },
    {
      "children": [
        4
      ],
      "matrix": [
        98.57500301341653,
        -7.58337939235723e-07,
        16.82172127886699,
        0.0,
        16.82146807156577,
        -0.5472796959351767,
        -98.57351924757333,
        0.0,
        0.09206261258644274,
        99.99851004273853,
        -0.5394808491963485,
        0.0,
        0.0,
        0.0,
        0.0,
        1.0
      ],
      "name": "Mesh_0031.rip"
    },
    {
      "mesh": 0,
      "name": "Mesh_0031.rip_mat0.071_0"
    },
    {
      "children": [
        6
      ],
      "matrix": [
        98.57500301341653,
        -7.58337939235723e-07,
        16.82172127886699,
        0.0,
        16.82146807156577,
        -0.5472796959351767,
        -98.57351924757333,
        0.0,
        0.09206261258644274,
        99.99851004273853,
        -0.5394808491963485,
        0.0,
        0.0,
        0.0,
        0.0,
        1.0
      ],
      "name": "Mesh_0022.rip"
    },
    {
      "mesh": 1,
      "name": "Mesh_0022.rip_mat0.080_0"
    },
    {
      "children": [
        8
      ],
      "matrix": [
        98.57500301341653,
        -7.58337939235723e-07,
        16.82172127886699,
        0.0,
        16.82146807156577,
        -0.5472796959351767,
        -98.57351924757333,
        0.0,
        0.09206261258644274,
        99.99851004273853,
        -0.5394808491963485,
        0.0,
        0.0,
        0.0,
        0.0,
        1.0
      ],
      "name": "Mesh_0021.rip"
    },
    {
      "mesh": 2,
      "name": "Mesh_0021.rip_mat0.081_0"
    },
    {
      "children": [
        10
      ],
      "matrix": [
        98.57500301341653,
        -7.58337939235723e-07,
        16.82172127886699,
        0.0,
        16.82146807156577,
        -0.5472796959351767,
        -98.57351924757333,
        0.0,
        0.09206261258644274,
        99.99851004273853,
        -0.5394808491963485,
        0.0,
        0.0,
        0.0,
        0.0,
        1.0
      ],
      "name": "Mesh_0020.rip"
    },
    {
      "mesh": 3,
      "name": "Mesh_0020.rip_mat0.082_0"
    },
    {
      "children": [
        12
      ],
      "matrix": [
        98.57500301341653,
        -7.58337939235723e-07,
        16.82172127886699,
        0.0,
        16.82146807156577,
        -0.5472796959351767,
        -98.57351924757333,
        0.0,
        0.09206261258644274,
        99.99851004273853,
        -0.5394808491963485,
        0.0,
        0.0,
        0.0,
        0.0,
        1.0
      ],
      "name": "Mesh_0018.rip"
    },
    {
      "mesh": 4,
      "name": "Mesh_0018.rip_mat0.084_0"
    },
    {
      "children": [
        14
      ],
      "matrix": [
        98.57500301341653,
        -7.58337939235723e-07,
        16.82172127886699,
        0.0,
        16.82146807156577,
        -0.5472796959351767,
        -98.57351924757333,
        0.0,
        0.09206261258644274,
        99.99851004273853,
        -0.5394808491963485,
        0.0,
        0.0,
        0.0,
        0.0,
        1.0
      ],
      "name": "Mesh_0014.rip"
    },
    {
      "mesh": 5,
      "name": "Mesh_0014.rip_mat0.088_0"
    }
  ],
  "samplers": [
    {
      "magFilter": 9729,
      "minFilter": 9987,
      "wrapS": 10497,
      "wrapT": 10497
    }
  ],
  "scene": 0,
  "scenes": [
    {
      "name": "Sketchfab_Scene",
      "nodes": [
        0
      ]
    }
  ],
  "textures": [
    {
      "sampler": 0,
      "source": 0
    },
    {
      "sampler": 0,
      "source": 1
    },
    {
      "sampler": 0,
      "source": 2
    },
    {
      "sampler": 0,
      "source": 3
    },
    {
      "sampler": 0,
      "source": 4
    },
    {
      "sampler": 0,
      "source": 5
    },
    {
      "sampler": 0,
      "source": 6
    }
  ]
}
